<?xml version="1.0" encoding="utf-8"?>
<!-- Generator: Adobe Illustrator 23.0.0, SVG Export Plug-In . SVG Version: 6.00 Build 0)  -->
<svg version="1.1" preserveAspectRatio="none" id="图层_1" xmlns="http://www.w3.org/2000/svg" xmlns:xlink="http://www.w3.org/1999/xlink" x="0px" y="0px"
	 viewBox="0 0 18 18" style="enable-background:new 0 0 18 18;" xml:space="preserve">
<style type="text/css">
	.st0{fill-rule:evenodd;clip-rule:evenodd;}
</style>
<path class="st0" d="M3.7,2.7c-0.4-0.4-0.4-1,0-1.4c0.4-0.4,1-0.4,1.4,0l2.1,2c0.1,0.1,0.1,0.1,0.2,0.2h3.2c0-0.1,0.1-0.1,0.2-0.2
	l2.1-2c0.4-0.4,1-0.4,1.4,0c0.4,0.4,0.4,1,0,1.4l-0.9,0.8H14c2.2,0,4,1.8,4,4V13c0,2.2-1.8,4-4,4H4c-2.2,0-4-1.8-4-4V7.5
	c0-2.2,1.8-4,4-4h0.6L3.7,2.7z M4,5.4c-1.1,0-2,0.9-2,2v5.6c0,1.1,0.9,2,2,2h10c1.1,0,2-0.9,2-2V7.4c0-1.1-0.9-2-2-2H4z M5,9.3
	c0-0.6,0.4-1,1-1s1,0.4,1,1v0.9c0,0.6-0.4,1-1,1s-1-0.4-1-1V9.3z M12,8.3c-0.6,0-1,0.4-1,1v0.9c0,0.6,0.4,1,1,1s1-0.4,1-1V9.3
	C13,8.8,12.6,8.3,12,8.3z"/>
</svg>
