<?xml version="1.0" encoding="utf-8"?>
<!-- Generator: Adobe Illustrator 23.0.0, SVG Export Plug-In . SVG Version: 6.00 Build 0)  -->
<svg version="1.1" id="图层_1" xmlns="http://www.w3.org/2000/svg" xmlns:xlink="http://www.w3.org/1999/xlink" x="0px" y="0px"
	 viewBox="0 0 1024 1024" style="enable-background:new 0 0 1024 1024;" xml:space="preserve">
<style type="text/css">
	.st0{fill:#FFFFFF;}
	.st1{fill:url(#SVGID_1_);}
	.st2{fill:url(#SVGID_2_);}
	.st3{fill:url(#SVGID_3_);}
	.st4{fill:url(#SVGID_4_);}
</style>
<path class="st0" d="M137.49,386.96l14.48-26.47l14.41,26.35c25.61,46.85,64.13,85.37,110.98,110.98l26.35,14.41l-26.47,14.48
	c-46.8,25.6-85.27,64.08-110.87,110.87l-14.48,26.47l-14.41-26.35c-25.61-46.85-64.13-85.37-110.98-110.98L0.15,512.32l26.47-14.48
	C73.41,472.23,111.89,433.76,137.49,386.96z"/>
<path class="st0" d="M857.77,746.9l14.48-26.47l14.41,26.35c25.61,46.85,64.13,85.37,110.98,110.98l26.35,14.41l-26.47,14.48
	c-46.8,25.6-85.27,64.08-110.87,110.87L872.17,1024l-14.41-26.35c-25.61-46.85-64.13-85.37-110.98-110.98l-26.35-14.41l26.47-14.48
	C793.69,832.17,832.17,793.69,857.77,746.9z"/>
<path class="st0" d="M857.77,26.47L872.26,0l14.41,26.35c25.61,46.85,64.13,85.37,110.98,110.98l26.35,14.41l-26.47,14.48
	c-46.8,25.6-85.27,64.08-110.87,110.87l-14.48,26.47l-14.41-26.35c-25.61-46.85-64.13-85.37-110.98-110.98l-26.35-14.41l26.47-14.48
	C793.69,111.74,832.17,73.27,857.77,26.47z"/>
<g>
	
		<linearGradient id="SVGID_1_" gradientUnits="userSpaceOnUse" x1="210.022" y1="351.6194" x2="876.6471" y2="23.7186" gradientTransform="matrix(0.4215 0.2855 0.2812 0.8612 6.5161 112.9589)">
		<stop  offset="0" style="stop-color:#FFFFFF;stop-opacity:0"/>
		<stop  offset="1" style="stop-color:#FFFFFF"/>
	</linearGradient>
	<polygon class="st1" points="394.5,407.95 205.75,500.01 182.08,451.47 370.83,359.41 	"/>
	
		<linearGradient id="SVGID_2_" gradientUnits="userSpaceOnUse" x1="380.3277" y1="267.849" x2="1046.9528" y2="-60.0518" gradientTransform="matrix(-0.0345 0.5079 0.5055 0.7518 691.8045 -221.279)">
		<stop  offset="0" style="stop-color:#FFFFFF;stop-opacity:0"/>
		<stop  offset="1" style="stop-color:#FFFFFF"/>
	</linearGradient>
	<polygon class="st2" points="637.17,289.59 825.92,197.53 802.25,148.99 613.5,241.05 	"/>
	
		<rect x="369" y="297.5" transform="matrix(0.8988 -0.4384 0.4384 0.8988 -91.2437 253.7807)" class="st0" width="270" height="54"/>
</g>
<g>
	
		<linearGradient id="SVGID_3_" gradientUnits="userSpaceOnUse" x1="327.4156" y1="175.6819" x2="994.0408" y2="-152.2188" gradientTransform="matrix(0.4215 -0.2855 0.2812 -0.8612 6.5161 789.0411)">
		<stop  offset="0" style="stop-color:#FFFFFF;stop-opacity:0"/>
		<stop  offset="1" style="stop-color:#FFFFFF"/>
	</linearGradient>
	<polygon class="st3" points="394.5,612.05 205.75,519.99 182.08,568.53 370.83,660.59 	"/>
	
		<linearGradient id="SVGID_4_" gradientUnits="userSpaceOnUse" x1="169.3111" y1="253.4507" x2="835.9362" y2="-74.45" gradientTransform="matrix(-0.0345 -0.5079 0.5055 -0.7518 691.8045 1123.2789)">
		<stop  offset="0" style="stop-color:#FFFFFF;stop-opacity:0"/>
		<stop  offset="1" style="stop-color:#FFFFFF"/>
	</linearGradient>
	<polygon class="st4" points="637.17,730.41 825.92,822.47 802.25,871.01 613.5,778.95 	"/>
	
		<rect x="369" y="668.5" transform="matrix(0.8988 0.4384 -0.4384 0.8988 355.8953 -150.5504)" class="st0" width="270" height="54"/>
</g>
<g>
</g>
<g>
</g>
<g>
</g>
<g>
</g>
<g>
</g>
</svg>
